<?xml version="1.0" standalone="no"?>
<!DOCTYPE svg PUBLIC "-//W3C//DTD SVG 20010904//EN"
 "http://www.w3.org/TR/2001/REC-SVG-20010904/DTD/svg10.dtd">
<svg version="1.0" xmlns="http://www.w3.org/2000/svg"
 width="100.000000pt" height="100.000000pt" viewBox="0 0 100.000000 100.000000"
 preserveAspectRatio="xMidYMid meet">

<g transform="translate(0.000000,100.000000) scale(0.100000,-0.100000)"
fill="#000000" stroke="none">
<path d="M120 700 c0 -27 -3 -30 -30 -30 l-30 0 0 -60 0 -60 -30 0 c-28 0 -30
-3 -30 -35 0 -32 2 -35 30 -35 l30 0 0 -60 0 -60 30 0 c27 0 30 -3 30 -30 0
-28 3 -30 35 -30 l35 0 0 215 0 215 -35 0 c-32 0 -35 -2 -35 -30z"/>
<path d="M810 640 l0 -90 -295 0 c-284 0 -295 -1 -295 -19 0 -53 -10 -51 301
-51 l289 0 0 -90 0 -90 35 0 c32 0 35 2 35 30 0 27 3 30 30 30 l30 0 0 60 0
60 30 0 c28 0 30 3 30 35 0 32 -2 35 -30 35 l-30 0 0 60 0 60 -30 0 c-27 0
-30 3 -30 30 0 28 -3 30 -35 30 l-35 0 0 -90z"/>
</g>
</svg>
